<?xml version="1.0"?>
<svg width="140" height="140" xmlns="http://www.w3.org/2000/svg" xmlns:svg="http://www.w3.org/2000/svg">
 <defs>
  <clipPath id="clip0_109_2">
   <rect fill="white" height="140" id="svg_1" width="140"/>
  </clipPath>
 </defs>
 <g class="layer">
  <title>Layer 1</title>
  <g clip-path="url(#clip0_109_2)" id="svg_2">
   <path d="m73.28,27.83c13.13,4.31 24.71,11.99 33.78,22.01c1.5,-1.34 3.27,-2.13 5.17,-2.13c0.57,0 1.11,0.08 1.64,0.21c3.36,-9.37 4.55,-19.46 3.02,-29.73c-0.01,-0.06 -0.03,-0.12 -0.03,-0.19c-6.13,-5.52 -13.24,-9.97 -21.04,-13.07c-8.32,6.18 -15.98,13.88 -22.54,22.9z" fill="#0096ff" id="svg_3"/>
   <path d="m41.54,24.3c2.4,-0.23 4.82,-0.39 7.28,-0.39c6.23,0 12.29,0.74 18.11,2.12c6.71,-9.14 14.56,-16.92 23.08,-23.11c-6.34,-1.89 -13.05,-2.92 -20.01,-2.92c-8.11,0 -15.88,1.39 -23.13,3.93c-3.89,5.27 -7.1,11.05 -9.59,17.21c1.84,0.64 3.34,1.73 4.26,3.16z" fill="#0096ff" id="svg_4"/>
   <path d="m33.76,36.53c-0.33,0.07 -0.66,0.14 -0.98,0.19c-0.78,4.42 -1.21,8.95 -1.21,13.59c0,13.37 3.4,25.92 9.32,36.92c1.27,-0.17 2.6,-0.17 3.94,-0.02c0.71,-13.8 4.15,-28.11 10.65,-41.92c2.08,-4.43 4.41,-8.64 6.94,-12.64c-5.63,-1.28 -11.48,-1.96 -17.5,-1.96c-1.07,0 -2.14,0.07 -3.2,0.11c-1.34,2.62 -4.25,4.84 -7.96,5.73z" fill="#0096ff" id="svg_5"/>
   <path d="m68.83,34.43c-2.43,3.88 -4.68,7.95 -6.69,12.23c-6.61,14.06 -10.04,28.61 -10.67,42.64c2.57,1.4 4.63,3.33 6.08,5.53c19.12,-4.07 35.22,-14.39 45.92,-28.1c-0.55,-1.69 -0.86,-3.56 -0.86,-5.54c0,-1.6 0.21,-3.14 0.57,-4.56c-9.2,-10.16 -20.99,-17.93 -34.35,-22.2z" fill="#0096ff" id="svg_6"/>
   <path d="m30.3,94.74c0.83,-1.96 2.16,-3.58 3.81,-4.82c-5.88,-10.98 -9.25,-23.51 -9.25,-36.84c0,-5.76 0.69,-11.34 1.88,-16.73c-1.56,-0.51 -2.89,-1.33 -3.86,-2.41c-5.81,1.69 -11.35,4.02 -16.53,6.93c-4.06,8.87 -6.35,18.73 -6.35,29.13c0,5.98 0.75,11.77 2.16,17.31c8.32,4.51 17.71,7.54 27.67,8.77c0.13,-0.45 0.29,-0.9 0.47,-1.34z" fill="#0096ff" id="svg_7"/>
   <path d="m112.23,74.66c-1.38,0 -2.69,-0.41 -3.88,-1.15c-11.08,14.48 -28.15,25.28 -48.45,29.06c-0.03,1.46 -0.31,2.91 -0.9,4.3c-0.29,0.69 -0.65,1.32 -1.06,1.92c13.51,11.98 31.18,19.35 50.58,19.65c5.54,-3.66 10.52,-8.08 14.81,-13.12c0.15,-1.97 0.25,-3.95 0.25,-5.96c0,-12.72 -3.08,-24.7 -8.44,-35.32c-0.92,0.4 -1.89,0.62 -2.91,0.62z" fill="#0096ff" id="svg_8"/>
   <path d="m53.23,113.27c1.94,9.57 5.35,18.5 10.1,26.4c2.2,0.21 4.42,0.33 6.67,0.33c12.33,0 23.91,-3.2 33.97,-8.79c-0.32,0 -0.63,0.03 -0.95,0.03c-18.93,-0.01 -36.27,-6.77 -49.79,-17.97z" fill="#0096ff" id="svg_9"/>
   <path d="m39.46,113.1c-4.94,-2.09 -8.39,-6.07 -9.6,-10.41c-9.4,-1.71 -18.2,-5.02 -25.97,-9.67c8.14,23.36 28.29,41.08 53.05,45.75c-4.46,-7.3 -7.74,-15.5 -9.79,-24.28c-2.5,0.12 -5.13,-0.31 -7.69,-1.39z" fill="#0096ff" id="svg_10"/>
   <path d="m30.03,20.88c0.66,-0.16 1.31,-0.26 1.96,-0.33c2.26,-4.92 5,-9.57 8.19,-13.89c-12.68,5.98 -23.27,15.66 -30.39,27.65c3.67,-2.1 7.53,-3.9 11.53,-5.4c0.5,-3.56 3.95,-6.9 8.71,-8.03z" fill="#0096ff" id="svg_11"/>
   <path d="m140,70c0,-18.71 -7.35,-35.69 -19.31,-48.25c0.26,1.24 0.5,2.48 0.68,3.75c1.37,9.15 0.57,18.16 -2,26.66c1.54,2.39 2.49,5.55 2.49,9.03c0,2.98 -0.69,5.72 -1.87,7.96c4.78,10.14 7.48,21.46 7.48,33.43c0,2.68 -0.14,5.32 -0.41,7.94c8.14,-11.44 12.94,-25.41 12.94,-40.52z" fill="#0096ff" id="svg_12"/>
   <path d="m41.94,107.22c4.13,1.75 8.7,0.29 10.19,-3.25c1.5,-3.54 -0.64,-7.82 -4.77,-9.57c-4.13,-1.74 -8.7,-0.29 -10.19,3.25c-1.5,3.54 0.64,7.82 4.77,9.57z" fill="#0096ff" id="svg_13"/>
   <path d="m112.23,66.9c2.26,0 4.08,-2.56 4.08,-5.71c0,-3.16 -1.82,-5.71 -4.08,-5.71c-2.25,0 -4.07,2.55 -4.07,5.71c0,3.15 1.82,5.71 4.07,5.71z" fill="#0096ff" id="svg_14"/>
   <path d="m32.69,32.03c2.46,-0.59 4.09,-2.55 3.66,-4.39c-0.44,-1.84 -2.79,-2.86 -5.25,-2.27c-2.46,0.59 -4.1,2.55 -3.66,4.39c0.44,1.84 2.79,2.86 5.25,2.27z" fill="#0096ff" id="svg_15"/>
  </g>
 </g>
</svg>